<svg width="15" height="16" viewBox="0 0 15 16" fill="none" xmlns="http://www.w3.org/2000/svg">
<path d="M14.6148 5.58991C14.3701 5.34648 13.9743 5.34756 13.7309 5.59228L6.21762 13.1462C5.24287 14.121 3.65972 14.121 2.68314 13.1449C1.7073 12.1685 1.7073 10.5854 2.68326 9.60944L10.4189 1.83312C11.0275 1.22458 12.0169 1.22458 12.6272 1.83444C13.2374 2.44459 13.2374 3.43388 12.6271 4.0442L6.21879 10.4524C6.21838 10.4529 6.21803 10.4533 6.21762 10.4537C5.97349 10.6965 5.57894 10.6962 5.3353 10.4526C5.09125 10.2085 5.09125 9.81297 5.3353 9.56892L8.42853 6.47505C8.67258 6.23094 8.67255 5.83519 8.42844 5.59114C8.18433 5.34709 7.78858 5.34712 7.54453 5.59123L4.45134 8.68504C3.71916 9.41722 3.71916 10.6042 4.45139 11.3364C5.1836 12.0686 6.37061 12.0686 7.10285 11.3364C7.1037 11.3356 7.10437 11.3347 7.10519 11.3338L13.511 4.92805C14.6094 3.82957 14.6094 2.04881 13.511 0.95033C12.4123 -0.147506 10.6317 -0.147506 9.53386 0.95033L1.79818 8.7267C0.335244 10.1896 0.335244 12.5641 1.79924 14.0288C3.2642 15.493 5.63865 15.493 7.10273 14.0289L14.6172 6.47381C14.8606 6.22906 14.8595 5.83334 14.6148 5.58991Z" fill="#434343"/>
</svg>
