<svg width="26" height="25" viewBox="0 0 26 25" fill="none" xmlns="http://www.w3.org/2000/svg">
<path d="M13.8085 0.548989L25.3118 12.0173C25.6405 12.346 25.6405 12.8774 25.3118 13.2061L13.8085 24.6744C13.4799 25.0031 12.9484 25.0031 12.6197 24.6744L12.1232 24.1779C11.7946 23.8493 11.7946 23.3178 12.1232 22.9891L21.3538 13.8005L1.78077 13.8005C1.31924 13.8005 0.94162 13.4229 0.94162 12.9613L0.94162 12.2621C0.94162 11.8005 1.31924 11.4229 1.78077 11.4229L21.3538 11.4229L12.1302 2.23427C11.8016 1.90561 11.8016 1.37415 12.1302 1.04548L12.6267 0.548989C12.9484 0.220324 13.4799 0.220324 13.8085 0.548989Z" fill="black"/>
</svg>
