<svg width="15" height="14" viewBox="0 0 15 14" fill="none" xmlns="http://www.w3.org/2000/svg">
<path d="M13.3272 9.616C12.8547 9.60475 12.2599 9.577 11.8842 9.511C11.4777 9.439 10.9887 9.2995 10.6444 9.19225C10.3744 9.10825 10.0804 9.1825 9.88019 9.382L8.21744 11.035C7.06844 10.4297 6.14819 9.72475 5.36894 8.941C4.58519 8.16175 3.88019 7.2415 3.27494 6.0925L4.92794 4.429C5.12744 4.22875 5.20169 3.93475 5.11769 3.66475C5.01119 3.32125 4.87094 2.83225 4.79969 2.42575C4.73294 2.05 4.70594 1.45525 4.69394 0.98275C4.68419 0.574 4.35119 0.25 3.94244 0.25H1.30994C0.981437 0.25 0.559937 0.496 0.559937 1C0.559937 4.40425 1.93994 7.6555 4.28444 10.0255C6.65444 12.37 9.90569 13.75 13.3099 13.75C13.8139 13.75 14.0599 13.3285 14.0599 13V10.3675C14.0599 9.95875 13.7359 9.62575 13.3272 9.616Z" fill="white"/>
</svg>
