<svg width="17" height="18" viewBox="0 0 17 18" fill="none" xmlns="http://www.w3.org/2000/svg">
<path d="M2.60229 0.1875C1.18678 0.1875 0.0241699 1.38025 0.0241699 2.83247V14.855C0.0241699 16.3073 1.18678 17.5 2.60229 17.5H14.321C15.7366 17.5 16.8992 16.3073 16.8992 14.855V2.83247C16.8992 1.38025 15.7366 0.1875 14.321 0.1875H2.60229ZM2.60229 1.63021H14.321C14.9765 1.63021 15.4929 2.16005 15.4929 2.83247V14.855C15.4929 15.5274 14.9765 16.0573 14.321 16.0573H11.2742V11.2483H12.9734C13.2096 11.2483 13.4094 11.067 13.4385 10.8265L13.6143 9.38383C13.6311 9.24725 13.5889 9.11012 13.4998 9.00624C13.4112 8.90285 13.2837 8.84375 13.1492 8.84375H11.2742V7.16059C11.2742 6.63015 11.6946 6.19878 12.2117 6.19878H13.1492C13.4079 6.19878 13.6179 5.98382 13.6179 5.71788V4.09484C13.6179 3.84573 13.4327 3.63793 13.1913 3.61581C13.1636 3.61341 12.5023 3.55382 11.6651 3.55382C9.59932 3.55382 8.46167 4.81195 8.46167 7.09672V8.84375H6.58667C6.32792 8.84375 6.11792 9.05871 6.11792 9.32465V10.7674C6.11792 11.0333 6.32792 11.2483 6.58667 11.2483H8.46167V16.0573H2.60229C1.94688 16.0573 1.43042 15.5274 1.43042 14.855V2.83247C1.43042 2.16005 1.94688 1.63021 2.60229 1.63021Z" fill="#2D2D2D"/>
</svg>
