<svg width="36" height="41" viewBox="0 0 36 41" fill="none" xmlns="http://www.w3.org/2000/svg">
<path d="M9.38394 34.5439H11.9171C13.3182 34.5439 14.4502 33.404 14.4502 32.0108V29.4777C14.4502 28.0844 13.3182 26.9445 11.9171 26.9445H9.38394C7.98279 26.9445 6.85079 28.0844 6.85079 29.4777V32.0108C6.85079 33.404 7.98279 34.5439 9.38394 34.5439ZM9.38394 29.4777H11.9171V32.0108H9.38394V29.4777ZM9.38394 14.2788H11.9171C13.3182 14.2788 14.4502 13.1388 14.4502 11.7456V9.21246C14.4502 7.81923 13.3182 6.67931 11.9171 6.67931H9.38394C7.98279 6.67931 6.85079 7.81923 6.85079 9.21246V11.7456C6.85079 13.1388 7.98279 14.2788 9.38394 14.2788ZM9.38394 9.21246H11.9171V11.7456H9.38394V9.21246ZM33.4489 0.346436H3.05106C1.64991 0.346436 0.517914 1.48635 0.517914 2.87958V38.3437C0.517914 39.7369 1.64991 40.8768 3.05106 40.8768H33.4489C34.85 40.8768 35.982 39.7369 35.982 38.3437V2.87958C35.982 1.48635 34.85 0.346436 33.4489 0.346436ZM33.4489 38.3437H3.05106V2.87958H33.4489V38.3437ZM17.6167 11.7456H27.7493C28.0976 11.7456 28.3826 11.4606 28.3826 11.1123V9.84575C28.3826 9.49744 28.0976 9.21246 27.7493 9.21246H17.6167C17.2684 9.21246 16.9834 9.49744 16.9834 9.84575V11.1123C16.9834 11.4606 17.2684 11.7456 17.6167 11.7456ZM17.6167 21.8782H27.7493C28.0976 21.8782 28.3826 21.5932 28.3826 21.2449V19.9783C28.3826 19.63 28.0976 19.3451 27.7493 19.3451H17.6167C17.2684 19.3451 16.9834 19.63 16.9834 19.9783V21.2449C16.9834 21.5932 17.2684 21.8782 17.6167 21.8782ZM17.6167 32.0108H27.7493C28.0976 32.0108 28.3826 31.7258 28.3826 31.3775V30.1109C28.3826 29.7626 28.0976 29.4777 27.7493 29.4777H17.6167C17.2684 29.4777 16.9834 29.7626 16.9834 30.1109V31.3775C16.9834 31.7258 17.2684 32.0108 17.6167 32.0108ZM9.9064 23.0181C10.0726 23.1844 10.3418 23.1844 10.508 23.0181L15.5902 17.9835C15.7564 17.8172 15.7564 17.5481 15.5902 17.3819L14.5927 16.3765C14.4265 16.2103 14.1573 16.2103 13.9911 16.3765L10.223 20.1129L8.59233 18.4585C8.42609 18.2922 8.15694 18.2922 7.9907 18.4585L6.98536 19.4559C6.81912 19.6221 6.81912 19.8913 6.98536 20.0575L9.9064 23.0181Z" fill="#FF3A3A"/>
</svg>
