<svg width="50" height="40" viewBox="0 0 50 40" fill="none" xmlns="http://www.w3.org/2000/svg">
<path d="M11.6719 14.7346H8.62379C8.38127 14.7346 8.14868 14.831 7.97719 15.0025C7.8057 15.174 7.70936 15.4065 7.70936 15.6491V18.6972C7.70936 18.9397 7.8057 19.1723 7.97719 19.3438C8.14868 19.5153 8.38127 19.6116 8.62379 19.6116H11.6719C11.9144 19.6116 12.147 19.5153 12.3185 19.3438C12.49 19.1723 12.5863 18.9397 12.5863 18.6972V15.6491C12.5863 15.4065 12.49 15.174 12.3185 15.0025C12.147 14.831 11.9144 14.7346 11.6719 14.7346ZM11.6719 22.0501H8.62379C8.38127 22.0501 8.14868 22.1464 7.97719 22.3179C7.8057 22.4894 7.70936 22.722 7.70936 22.9645V26.0126C7.70936 26.2551 7.8057 26.4877 7.97719 26.6592C8.14868 26.8307 8.38127 26.927 8.62379 26.927H11.6719C11.9144 26.927 12.147 26.8307 12.3185 26.6592C12.49 26.4877 12.5863 26.2551 12.5863 26.0126V22.9645C12.5863 22.722 12.49 22.4894 12.3185 22.3179C12.147 22.1464 11.9144 22.0501 11.6719 22.0501ZM11.6719 29.3655H8.62379C8.38127 29.3655 8.14868 29.4619 7.97719 29.6333C7.8057 29.8048 7.70936 30.0374 7.70936 30.2799V33.328C7.70936 33.5706 7.8057 33.8032 7.97719 33.9746C8.14868 34.1461 8.38127 34.2425 8.62379 34.2425H11.6719C11.9144 34.2425 12.147 34.1461 12.3185 33.9746C12.49 33.8032 12.5863 33.5706 12.5863 33.328V30.2799C12.5863 30.0374 12.49 29.8048 12.3185 29.6333C12.147 29.4619 11.9144 29.3655 11.6719 29.3655ZM18.9873 22.0501H15.9392C15.6967 22.0501 15.4641 22.1464 15.2926 22.3179C15.1211 22.4894 15.0248 22.722 15.0248 22.9645V26.0126C15.0248 26.2551 15.1211 26.4877 15.2926 26.6592C15.4641 26.8307 15.6967 26.927 15.9392 26.927H18.9873C19.2299 26.927 19.4624 26.8307 19.6339 26.6592C19.8054 26.4877 19.9018 26.2551 19.9018 26.0126V22.9645C19.9018 22.722 19.8054 22.4894 19.6339 22.3179C19.4624 22.1464 19.2299 22.0501 18.9873 22.0501ZM18.9873 14.7346H15.9392C15.6967 14.7346 15.4641 14.831 15.2926 15.0025C15.1211 15.174 15.0248 15.4065 15.0248 15.6491V18.6972C15.0248 18.9397 15.1211 19.1723 15.2926 19.3438C15.4641 19.5153 15.6967 19.6116 15.9392 19.6116H18.9873C19.2299 19.6116 19.4624 19.5153 19.6339 19.3438C19.8054 19.1723 19.9018 18.9397 19.9018 18.6972V15.6491C19.9018 15.4065 19.8054 15.174 19.6339 15.0025C19.4624 14.831 19.2299 14.7346 18.9873 14.7346ZM18.9873 29.3655H15.9392C15.6967 29.3655 15.4641 29.4619 15.2926 29.6333C15.1211 29.8048 15.0248 30.0374 15.0248 30.2799V33.328C15.0248 33.5706 15.1211 33.8032 15.2926 33.9746C15.4641 34.1461 15.6967 34.2425 15.9392 34.2425H18.9873C19.2299 34.2425 19.4624 34.1461 19.6339 33.9746C19.8054 33.8032 19.9018 33.5706 19.9018 33.328V30.2799C19.9018 30.0374 19.8054 29.8048 19.6339 29.6333C19.4624 29.4619 19.2299 29.3655 18.9873 29.3655ZM15.0248 9.85768H17.0061C17.1273 9.85768 17.2436 9.80951 17.3294 9.72376C17.4151 9.63802 17.4633 9.52173 17.4633 9.40046V7.87641C17.4633 7.75515 17.4151 7.63886 17.3294 7.55311C17.2436 7.46737 17.1273 7.4192 17.0061 7.4192H15.0248V5.43793C15.0248 5.31667 14.9766 5.20038 14.8909 5.11463C14.8051 5.02889 14.6888 4.98072 14.5676 4.98072H13.0435C12.9223 4.98072 12.806 5.02889 12.7202 5.11463C12.6345 5.20038 12.5863 5.31667 12.5863 5.43793V7.4192H10.6051C10.4838 7.4192 10.3675 7.46737 10.2818 7.55311C10.196 7.63886 10.1478 7.75515 10.1478 7.87641V9.40046C10.1478 9.52173 10.196 9.63802 10.2818 9.72376C10.3675 9.80951 10.4838 9.85768 10.6051 9.85768H12.5863V11.8389C12.5863 11.9602 12.6345 12.0765 12.7202 12.1622C12.806 12.248 12.9223 12.2962 13.0435 12.2962H14.5676C14.6888 12.2962 14.8051 12.248 14.8909 12.1622C14.9766 12.0765 15.0248 11.9602 15.0248 11.8389V9.85768ZM36.9711 24.4886C38.418 24.4886 39.8323 24.0595 41.0354 23.2557C42.2384 22.4519 43.176 21.3093 43.7297 19.9726C44.2834 18.6359 44.4283 17.165 44.146 15.7459C43.8637 14.3269 43.167 13.0234 42.1439 12.0003C41.1208 10.9772 39.8173 10.2805 38.3983 9.99824C36.9792 9.71598 35.5083 9.86085 34.1716 10.4145C32.8349 10.9682 31.6924 11.9059 30.8886 13.1089C30.0847 14.3119 29.6557 15.7263 29.6557 17.1731C29.6557 19.1133 30.4264 20.974 31.7983 22.3459C33.1702 23.7178 35.0309 24.4886 36.9711 24.4886ZM36.9711 12.2962C37.9357 12.2962 38.8786 12.5822 39.6806 13.1181C40.4826 13.654 41.1077 14.4156 41.4768 15.3068C41.846 16.1979 41.9426 17.1785 41.7544 18.1246C41.5662 19.0706 41.1017 19.9396 40.4197 20.6216C39.7376 21.3037 38.8686 21.7682 37.9226 21.9564C36.9765 22.1445 35.9959 22.048 35.1048 21.6788C34.2136 21.3097 33.452 20.6846 32.9161 19.8826C32.3802 19.0806 32.0942 18.1377 32.0942 17.1731C32.0956 15.8801 32.6098 14.6404 33.5241 13.7261C34.4384 12.8118 35.6781 12.2976 36.9711 12.2962ZM47.9207 29.1468C46.6062 27.1937 44.3628 26.165 42.0607 26.165C39.943 26.165 39.4096 26.927 36.9711 26.927C34.5326 26.927 34.003 26.165 31.8816 26.165C29.578 26.165 27.3361 27.1922 26.0216 29.1453C25.2088 30.351 24.7759 31.7726 24.7787 33.2267V36.0713C24.7787 36.8797 25.0999 37.655 25.6715 38.2267C26.2431 38.7983 27.0184 39.1194 27.8268 39.1194H46.1154C46.9238 39.1194 47.6991 38.7983 48.2708 38.2267C48.8424 37.655 49.1635 36.8797 49.1635 36.0713V33.2267C49.166 31.7731 48.7331 30.3521 47.9207 29.1468ZM46.725 36.0713C46.725 36.233 46.6608 36.3881 46.5465 36.5024C46.4322 36.6167 46.2771 36.681 46.1154 36.681H27.8268C27.6651 36.681 27.5101 36.6167 27.3958 36.5024C27.2814 36.3881 27.2172 36.233 27.2172 36.0713V33.2267C27.2151 32.2584 27.5031 31.3117 28.044 30.5086C28.8464 29.3167 30.2805 28.6035 31.8816 28.6035C33.5428 28.6035 34.1676 29.3655 36.9711 29.3655C39.7746 29.3655 40.4002 28.6035 42.0607 28.6035C43.6609 28.6035 45.0958 29.3152 45.8982 30.5086C46.4391 31.3117 46.7271 32.2584 46.725 33.2267V36.0713ZM24.7787 9.85768V26.7983C25.4769 26.0287 26.3016 25.3844 27.2172 24.8932V9.85768C27.2172 9.21095 26.9603 8.59072 26.503 8.13341C26.0457 7.67611 25.4254 7.4192 24.7787 7.4192H23.5595V2.54224C23.5595 1.89551 23.3026 1.27528 22.8453 0.817974C22.388 0.36067 21.7677 0.10376 21.121 0.10376L6.49012 0.10376C5.8434 0.10376 5.22316 0.36067 4.76585 0.817974C4.30855 1.27528 4.05164 1.89551 4.05164 2.54224V7.4192H2.8324C2.18568 7.4192 1.56544 7.67611 1.10814 8.13341C0.650831 8.59072 0.393921 9.21095 0.393921 9.85768L0.393921 38.5098C0.393921 38.6715 0.458149 38.8266 0.572474 38.9409C0.6868 39.0552 0.84186 39.1194 1.00354 39.1194H2.22278C2.38446 39.1194 2.53952 39.0552 2.65385 38.9409C2.76817 38.8266 2.8324 38.6715 2.8324 38.5098V9.85768H6.49012V2.54224H21.121V9.85768H24.7787Z" fill="#FF3A3A"/>
</svg>
