<svg width="34" height="18" viewBox="0 0 34 18" fill="none" xmlns="http://www.w3.org/2000/svg">
<path d="M9.27417 0.5C4.57963 0.5 0.77417 4.30546 0.77417 9C0.77417 13.6945 4.57963 17.5 9.27417 17.5C13.9687 17.5 17.7742 13.6945 17.7742 9C17.7742 4.30546 13.9687 0.5 9.27417 0.5ZM16.6678 9.1868L15.2002 8.81972C15.1327 8.80258 15.0747 8.76248 15.0374 8.70559L14.4215 7.78121C14.3916 7.73607 14.3757 7.68315 14.3757 7.62903C14.3757 7.57492 14.3916 7.522 14.4215 7.47685L15.0929 6.46954C15.1196 6.42978 15.1549 6.3979 15.1978 6.377L16.0193 5.96605C16.4385 6.89317 16.6774 7.91831 16.6774 9C16.6774 9.06306 16.6695 9.12407 16.6678 9.1868ZM1.87094 9C1.87094 8.59145 1.91276 8.19353 1.97685 7.8028C2.22225 8.16611 2.47451 8.53833 2.65925 8.80909C2.86078 9.10625 3.0983 9.37839 3.39203 9.64333C3.75945 9.97544 4.16526 10.2544 4.59711 10.4714C5.07044 10.7103 5.76449 11.0866 6.25187 11.3567C6.42427 11.4527 6.53258 11.6364 6.53258 11.8355V12.933C6.53258 13.372 6.70395 13.7857 7.01447 14.0962C7.44838 14.5301 7.6626 15.1817 7.62935 15.4651V16.2127C4.33697 15.4617 1.87094 12.5162 1.87094 9ZM8.72304 16.3755L8.7203 15.5378C8.80598 14.901 8.39675 13.9276 7.78941 13.3206C7.68762 13.2185 7.62867 13.0769 7.62867 12.933V11.8355C7.62867 11.2367 7.30409 10.6856 6.78141 10.397C6.28443 10.1218 5.5753 9.73655 5.09032 9.49183C4.74552 9.31875 4.42094 9.09562 4.09842 8.80464C3.89705 8.62204 3.71803 8.41622 3.56512 8.19147C3.23403 7.70512 2.68975 6.89865 2.35181 6.39722C3.24225 4.03675 5.29871 2.24524 7.8206 1.74107L9.59566 3.51613L9.08052 4.03127C8.77103 4.34077 8.7604 4.83774 9.0483 5.16026L8.85225 5.16129C8.63804 5.16129 8.43445 5.24389 8.27919 5.39436L7.93953 5.72476C7.68042 5.97496 7.61496 6.35986 7.77673 6.68272L7.91383 6.95623C7.67596 6.86198 7.40725 6.84929 7.15877 6.93361L6.08975 7.28972C5.89908 7.35314 5.73323 7.47503 5.61577 7.63808C5.49832 7.80112 5.43523 7.99704 5.43546 8.19798C5.43546 8.56335 5.63802 8.89135 5.96465 9.05484L6.34475 9.24506C6.71217 9.42877 7.12004 9.53228 7.53133 9.54667C7.6129 9.6255 7.74554 9.80579 7.82917 9.91992C8.03173 10.1969 8.22332 10.4587 8.48038 10.5872L8.59623 10.6452H11.0136C11.1582 10.6452 11.2994 10.7034 11.4012 10.8059L11.8704 11.2751C11.9633 11.3688 12.0156 11.4952 12.0161 11.6271C12.0161 11.903 11.9037 12.1728 11.7056 12.3695L11.3169 12.7578C11.1482 12.9278 11.0271 13.1391 10.9656 13.3706L10.9272 13.5218C10.895 13.6483 10.8642 13.7747 10.8179 13.8988L9.90002 16.3724C9.69334 16.3899 9.48564 16.4039 9.27451 16.4039C9.08806 16.4032 8.90572 16.3888 8.72304 16.3755ZM11.1503 16.153L11.8447 14.2813C11.9057 14.1202 11.9486 13.9547 11.9904 13.7891L12.0257 13.6503C12.0374 13.6054 12.062 13.5629 12.1659 13.4591L12.4809 13.1451C12.8826 12.7462 13.1129 12.1923 13.1129 11.6264C13.1129 11.2066 12.9425 10.796 12.6461 10.4992L12.1769 10.0299C11.8704 9.72353 11.4465 9.54804 11.0136 9.54804H8.92492C8.85945 9.47161 8.77617 9.35645 8.71379 9.27179C8.4324 8.88758 8.11296 8.45161 7.62901 8.45161C7.35482 8.45161 7.08062 8.38683 6.83522 8.26413L6.75502 8.22403L7.50596 7.97383L7.82403 8.25008C7.97415 8.37964 8.16471 8.45161 8.36282 8.45161H8.55681C8.84403 8.45161 9.1052 8.30595 9.25635 8.06123C9.4075 7.8172 9.42121 7.51764 9.29268 7.26127L8.84814 6.37186L8.96399 6.25841H9.16107C9.38076 6.25841 9.58744 6.17272 9.7427 6.01746L10.0169 5.74327C10.3264 5.43377 10.337 4.93679 10.0491 4.61427L10.3716 4.29175C10.5783 4.0844 10.6931 3.80917 10.6931 3.51647C10.6931 3.22377 10.5786 2.94821 10.3716 2.74119L9.22996 1.59952C9.24504 1.59952 9.25978 1.59712 9.27486 1.59712C11.8842 1.59712 14.1774 2.95712 15.4963 5.00226L14.7087 5.39607C14.4955 5.50271 14.3138 5.66314 14.1815 5.86151L13.5101 6.86883C13.2016 7.33085 13.2016 7.92756 13.5101 8.38992L14.126 9.31429C14.3156 9.59809 14.6018 9.79996 14.9346 9.88359L16.5585 10.2894C16.0539 13.1393 13.918 15.4261 11.1503 16.153Z" fill="#2D2D2D"/>
<path d="M28.9765 11.7105C29.169 12.0438 29.6501 12.0438 29.8426 11.7105L32.5329 7.05064C32.7254 6.71731 32.4848 6.30064 32.0999 6.30064H26.7192C26.3343 6.30064 26.0937 6.71731 26.2862 7.05064L28.9765 11.7105Z" fill="#2D2D2D"/>
</svg>
