<svg width="18" height="18" viewBox="0 0 18 18" fill="none" xmlns="http://www.w3.org/2000/svg">
<path fill-rule="evenodd" clip-rule="evenodd" d="M3.47729 1.63021C2.83015 1.63021 2.30542 2.16854 2.30542 2.83247V14.855C2.30542 15.519 2.83015 16.0573 3.47729 16.0573H15.196C15.8432 16.0573 16.3679 15.519 16.3679 14.855V2.83247C16.3679 2.16854 15.8432 1.63021 15.196 1.63021H3.47729ZM0.89917 2.83247C0.89917 1.37176 2.0535 0.1875 3.47729 0.1875H15.196C16.6198 0.1875 17.7742 1.37176 17.7742 2.83247V14.855C17.7742 16.3157 16.6198 17.5 15.196 17.5H3.47729C2.0535 17.5 0.89917 16.3157 0.89917 14.855V2.83247Z" fill="#2D2D2D"/>
<path d="M5.35229 5.95834C5.9995 5.95834 6.52417 5.42008 6.52417 4.75609C6.52417 4.0921 5.9995 3.55383 5.35229 3.55383C4.70509 3.55383 4.18042 4.0921 4.18042 4.75609C4.18042 5.42008 4.70509 5.95834 5.35229 5.95834Z" fill="#2D2D2D"/>
<path d="M6.05542 14.1337H4.64917C4.38995 14.1337 4.18042 13.9187 4.18042 13.6528V7.40104C4.18042 7.1351 4.38995 6.92014 4.64917 6.92014H6.05542C6.31464 6.92014 6.52417 7.1351 6.52417 7.40104V13.6528C6.52417 13.9187 6.31464 14.1337 6.05542 14.1337Z" fill="#2D2D2D"/>
<path d="M11.6804 6.92014C10.9595 6.92014 10.3037 7.20194 9.80542 7.66121V7.40104C9.80542 7.1351 9.59589 6.92014 9.33667 6.92014H7.93042C7.6712 6.92014 7.46167 7.1351 7.46167 7.40104V13.6528C7.46167 13.9187 7.6712 14.1337 7.93042 14.1337H9.33667C9.59589 14.1337 9.80542 13.9187 9.80542 13.6528V10.046C9.80542 9.38284 10.3309 8.84375 10.9773 8.84375C11.6237 8.84375 12.1492 9.38284 12.1492 10.046V13.6528C12.1492 13.9187 12.3587 14.1337 12.6179 14.1337H14.0242C14.2834 14.1337 14.4929 13.9187 14.4929 13.6528V9.80555C14.4929 8.21424 13.2315 6.92014 11.6804 6.92014Z" fill="#2D2D2D"/>
</svg>
