<svg width="39" height="29" viewBox="0 0 39 29" fill="none" xmlns="http://www.w3.org/2000/svg">
<path d="M2.65737 12.237C1.34694 12.237 0.253922 13.3004 0.253922 14.6116C0.253922 15.9227 1.34694 16.9861 2.65737 16.9861C3.28713 16.9861 3.89109 16.7359 4.3364 16.2906C4.78171 15.8453 5.03188 15.2413 5.03188 14.6116C5.03188 13.9818 4.78171 13.3778 4.3364 12.9325C3.89109 12.4872 3.28713 12.237 2.65737 12.237ZM2.65737 0.364502C1.34694 0.364502 0.253922 1.42784 0.253922 2.73901C0.253922 4.05019 1.34694 5.11352 2.65737 5.11352C3.28713 5.11352 3.89109 4.86335 4.3364 4.41804C4.78171 3.97274 5.03188 3.36877 5.03188 2.73901C5.03188 2.10925 4.78171 1.50529 4.3364 1.05998C3.89109 0.614673 3.28713 0.364502 2.65737 0.364502ZM2.65737 24.1096C1.34694 24.1096 0.253922 25.1729 0.253922 26.4841C0.253922 27.7953 1.34694 28.8586 2.65737 28.8586C3.28713 28.8586 3.89109 28.6084 4.3364 28.1631C4.78171 27.7178 5.03188 27.1139 5.03188 26.4841C5.03188 25.8543 4.78171 25.2504 4.3364 24.8051C3.89109 24.3598 3.28713 24.1096 2.65737 24.1096ZM37.6524 1.55176H10.3456C10.1881 1.55176 10.0372 1.6143 9.92583 1.72563C9.8145 1.83695 9.75196 1.98794 9.75196 2.14538V3.33264C9.75196 3.49008 9.8145 3.64107 9.92583 3.7524C10.0372 3.86372 10.1881 3.92627 10.3456 3.92627H37.6524C37.8099 3.92627 37.9609 3.86372 38.0722 3.7524C38.1835 3.64107 38.2461 3.49008 38.2461 3.33264V2.14538C38.2461 1.98794 38.1835 1.83695 38.0722 1.72563C37.9609 1.6143 37.8099 1.55176 37.6524 1.55176ZM37.6524 13.4243H10.3456C10.1881 13.4243 10.0372 13.4868 9.92583 13.5982C9.8145 13.7095 9.75196 13.8605 9.75196 14.0179V15.2052C9.75196 15.3626 9.8145 15.5136 9.92583 15.6249C10.0372 15.7363 10.1881 15.7988 10.3456 15.7988H37.6524C37.8099 15.7988 37.9609 15.7363 38.0722 15.6249C38.1835 15.5136 38.2461 15.3626 38.2461 15.2052V14.0179C38.2461 13.8605 38.1835 13.7095 38.0722 13.5982C37.9609 13.4868 37.8099 13.4243 37.6524 13.4243ZM37.6524 25.2968H10.3456C10.1881 25.2968 10.0372 25.3594 9.92583 25.4707C9.8145 25.582 9.75196 25.733 9.75196 25.8905V27.0777C9.75196 27.2352 9.8145 27.3862 9.92583 27.4975C10.0372 27.6088 10.1881 27.6714 10.3456 27.6714H37.6524C37.8099 27.6714 37.9609 27.6088 38.0722 27.4975C38.1835 27.3862 38.2461 27.2352 38.2461 27.0777V25.8905C38.2461 25.733 38.1835 25.582 38.0722 25.4707C37.9609 25.3594 37.8099 25.2968 37.6524 25.2968Z" fill="#FF3A3A"/>
</svg>
