<svg width="36" height="47" viewBox="0 0 36 47" fill="none" xmlns="http://www.w3.org/2000/svg">
<path d="M31.2673 6.2552H23.258C23.2942 6.02017 23.3123 5.77609 23.3123 5.53202C23.3123 2.73872 21.0433 0.469727 18.25 0.469727C15.4567 0.469727 13.1877 2.73872 13.1877 5.53202C13.1877 5.77609 13.2058 6.02017 13.2419 6.2552H5.23266C2.83711 6.2552 0.893555 8.19876 0.893555 10.5943V42.4144C0.893555 44.81 2.83711 46.7535 5.23266 46.7535H31.2673C33.6628 46.7535 35.6064 44.81 35.6064 42.4144V10.5943C35.6064 8.19876 33.6628 6.2552 31.2673 6.2552ZM18.25 3.36246C19.4523 3.36246 20.4195 4.32972 20.4195 5.53202C20.4195 6.73431 19.4523 7.70157 18.25 7.70157C17.0477 7.70157 16.0804 6.73431 16.0804 5.53202C16.0804 4.32972 17.0477 3.36246 18.25 3.36246ZM32.7137 42.4144C32.7137 43.2099 32.0628 43.8608 31.2673 43.8608H5.23266C4.43716 43.8608 3.78629 43.2099 3.78629 42.4144V10.5943C3.78629 9.7988 4.43716 9.14794 5.23266 9.14794H9.57177V10.9559C9.57177 11.5525 10.0599 12.0407 10.6565 12.0407H25.8434C26.44 12.0407 26.9282 11.5525 26.9282 10.9559V9.14794H31.2673C32.0628 9.14794 32.7137 9.7988 32.7137 10.5943V42.4144ZM11.0181 30.1203C9.81584 30.1203 8.84858 31.0875 8.84858 32.2898C8.84858 33.4921 9.81584 34.4594 11.0181 34.4594C12.2204 34.4594 13.1877 33.4921 13.1877 32.2898C13.1877 31.0875 12.2204 30.1203 11.0181 30.1203ZM26.205 30.8435H16.0804C15.6827 30.8435 15.3572 31.1689 15.3572 31.5667V33.013C15.3572 33.4108 15.6827 33.7362 16.0804 33.7362H26.205C26.6028 33.7362 26.9282 33.4108 26.9282 33.013V31.5667C26.9282 31.1689 26.6028 30.8435 26.205 30.8435ZM12.3018 24.9134L18.1053 19.164C18.2952 18.9742 18.2952 18.6669 18.1053 18.477L16.9663 17.329C16.7765 17.1391 16.4691 17.1391 16.2793 17.329L11.9764 21.5957L10.1142 19.7064C9.92432 19.5166 9.61697 19.5166 9.42713 19.7064L8.27907 20.8454C8.08924 21.0353 8.08924 21.3426 8.27907 21.5325L11.6328 24.9134C11.8046 25.1032 12.112 25.1032 12.3018 24.9134ZM26.205 22.1653H19.1901L16.2703 25.058H26.205C26.6028 25.058 26.9282 24.7326 26.9282 24.3348V22.8884C26.9282 22.4907 26.6028 22.1653 26.205 22.1653Z" fill="#FF3A3A"/>
</svg>
