<svg width="112" height="48" viewBox="0 0 112 48" fill="none" xmlns="http://www.w3.org/2000/svg">
<path d="M17.28 31L17.256 20.92L12.312 29.224H10.56L5.64 21.136V31H1.992V14.2H5.208L11.496 24.64L17.688 14.2H20.88L20.928 31H17.28ZM37.9219 27.88V31H24.9139V14.2H37.6099V17.32H28.7779V20.968H36.5779V23.992H28.7779V27.88H37.9219ZM41.0154 14.2H48.6474C50.4714 14.2 52.0794 14.552 53.4714 15.256C54.8794 15.944 55.9674 16.92 56.7354 18.184C57.5194 19.448 57.9114 20.92 57.9114 22.6C57.9114 24.28 57.5194 25.752 56.7354 27.016C55.9674 28.28 54.8794 29.264 53.4714 29.968C52.0794 30.656 50.4714 31 48.6474 31H41.0154V14.2ZM48.4554 27.808C50.1354 27.808 51.4714 27.344 52.4634 26.416C53.4714 25.472 53.9754 24.2 53.9754 22.6C53.9754 21 53.4714 19.736 52.4634 18.808C51.4714 17.864 50.1354 17.392 48.4554 17.392H44.9034V27.808H48.4554Z" fill="black"/>
<path d="M71.6686 21.648C71.8606 21.456 72.1006 21.408 72.3886 21.504C72.7086 21.568 73.0126 21.728 73.3006 21.984C73.5886 22.208 73.8446 22.496 74.0686 22.848C74.3246 23.168 74.4846 23.456 74.5486 23.712C74.5806 23.968 74.4686 24.32 74.2126 24.768C73.9566 25.216 73.6846 25.68 73.3966 26.16C73.1406 26.608 72.9326 27.024 72.7726 27.408C72.6126 27.792 72.6446 28.032 72.8686 28.128C73.0926 28.192 73.4606 28.016 73.9726 27.6C74.5166 27.152 75.1086 26.608 75.7486 25.968C75.4606 25.552 75.3486 25.104 75.4126 24.624C75.5086 24.112 75.6846 23.664 75.9406 23.28C76.2286 22.864 76.5646 22.512 76.9486 22.224C77.3326 21.936 77.7166 21.792 78.1006 21.792H78.1486C78.5646 21.792 78.8686 21.888 79.0606 22.08C79.2846 22.272 79.3966 22.528 79.3966 22.848C79.4286 23.168 79.3646 23.52 79.2046 23.904C79.0766 24.288 78.9006 24.672 78.6766 25.056C79.1246 25.344 79.7326 25.488 80.5006 25.488C81.2686 25.488 82.0046 25.152 82.7086 24.48C82.8686 24.32 83.0446 24.208 83.2366 24.144C83.4286 24.08 83.5726 24.064 83.6686 24.096C83.7966 24.096 83.8606 24.16 83.8606 24.288C83.8926 24.416 83.8126 24.592 83.6206 24.816C83.1726 25.328 82.6766 25.792 82.1326 26.208C81.6206 26.592 81.0766 26.896 80.5006 27.12C79.9246 27.344 79.3326 27.472 78.7246 27.504C78.1486 27.504 77.5726 27.36 76.9966 27.072C76.1646 27.904 75.3166 28.64 74.4526 29.28C73.5886 29.92 72.7886 30.24 72.0526 30.24C71.8606 30.24 71.6206 30.16 71.3326 30C71.0766 29.84 70.8046 29.648 70.5166 29.424C70.2606 29.168 70.0206 28.896 69.7966 28.608C69.6046 28.288 69.4766 28 69.4126 27.744C69.3166 27.488 69.2526 27.232 69.2206 26.976C69.2206 26.72 69.2206 26.464 69.2206 26.208C68.8366 26.56 68.4206 26.96 67.9726 27.408C67.5566 27.856 67.1246 28.272 66.6766 28.656C66.2606 29.04 65.8606 29.376 65.4766 29.664C65.1246 29.92 64.8046 30.048 64.5166 30.048C64.3566 30.048 64.1326 30 63.8446 29.904C63.5566 29.776 63.2686 29.616 62.9806 29.424C62.6606 29.232 62.3726 29.024 62.1166 28.8C61.8606 28.544 61.7166 28.272 61.6846 27.984C61.6526 27.696 61.7646 27.232 62.0206 26.592C62.2766 25.952 62.5966 25.264 62.9806 24.528C63.3646 23.792 63.7806 23.088 64.2286 22.416C64.7086 21.712 65.1406 21.168 65.5246 20.784C65.7166 20.624 65.9726 20.592 66.2926 20.688C66.6126 20.752 66.9326 20.896 67.2526 21.12C67.5726 21.312 67.8606 21.552 68.1166 21.84C68.3726 22.128 68.5326 22.4 68.5966 22.656C68.6286 22.816 68.5486 23.056 68.3566 23.376C68.1966 23.696 67.9726 24.048 67.6846 24.432C67.3966 24.816 67.1086 25.216 66.8206 25.632C66.5326 26.016 66.2766 26.368 66.0526 26.688C65.8286 26.976 65.6846 27.2 65.6206 27.36C65.5886 27.52 65.6846 27.552 65.9086 27.456C66.1006 27.36 66.3406 27.2 66.6286 26.976C66.9486 26.72 67.2846 26.432 67.6366 26.112C68.0206 25.76 68.4046 25.392 68.7886 25.008C69.2046 24.592 69.5886 24.192 69.9406 23.808C70.1646 23.36 70.4206 22.976 70.7086 22.656C70.9966 22.304 71.3166 21.968 71.6686 21.648ZM96.8292 24.144C97.2772 23.728 97.6292 23.632 97.8852 23.856C98.1732 24.048 98.0932 24.416 97.6452 24.96C97.3892 25.248 97.0372 25.68 96.5892 26.256C96.1412 26.8 95.6772 27.36 95.1972 27.936C94.7172 28.512 94.2372 29.024 93.7572 29.472C93.2772 29.92 92.8772 30.176 92.5572 30.24C92.1412 30.336 91.5492 30.272 90.7812 30.048C90.0452 29.824 89.4052 29.488 88.8612 29.04C88.4452 29.328 88.0452 29.616 87.6612 29.904C87.2772 30.16 86.8932 30.352 86.5092 30.48C86.1572 30.544 85.7252 30.528 85.2132 30.432C84.7012 30.336 84.1892 30.16 83.6772 29.904C83.1972 29.616 82.7652 29.28 82.3812 28.896C81.9972 28.512 81.7412 28.064 81.6132 27.552C81.4852 27.008 81.6292 26.368 82.0452 25.632C82.4292 24.864 82.9092 24.144 83.4852 23.472C84.0612 22.8 84.6532 22.224 85.2612 21.744C85.9012 21.232 86.3972 20.96 86.7492 20.928C86.9732 20.896 87.2452 20.912 87.5652 20.976C87.9172 21.04 88.2532 21.152 88.5732 21.312C88.9252 21.472 89.2292 21.664 89.4852 21.888C89.7732 22.112 89.9652 22.368 90.0612 22.656C90.5092 22.272 90.8932 22.096 91.2132 22.128C91.4692 22.192 91.7412 22.272 92.0292 22.368C92.3172 22.464 92.5732 22.576 92.7972 22.704C93.0532 22.832 93.2612 22.992 93.4212 23.184C93.5812 23.376 93.6452 23.584 93.6132 23.808C93.6132 24.064 93.4852 24.416 93.2292 24.864C92.9732 25.28 92.7012 25.712 92.4132 26.16C92.1252 26.608 91.8852 27.008 91.6932 27.36C91.5012 27.712 91.4692 27.936 91.5972 28.032C91.6932 28.096 91.9012 28.032 92.2212 27.84C92.5732 27.616 92.9892 27.328 93.4692 26.976C93.9492 26.592 94.4772 26.16 95.0532 25.68C95.6612 25.2 96.2532 24.688 96.8292 24.144ZM84.7812 28.752C85.1332 28.944 85.5652 28.848 86.0772 28.464C86.6212 28.048 87.1332 27.536 87.6132 26.928C88.0932 26.32 88.4932 25.696 88.8132 25.056C89.1652 24.416 89.3412 23.936 89.3412 23.616C89.2132 23.328 88.9892 23.248 88.6692 23.376C88.3492 23.504 87.9972 23.744 87.6132 24.096C87.2292 24.448 86.8292 24.88 86.4132 25.392C86.0292 25.904 85.6932 26.4 85.4052 26.88C85.1172 27.328 84.8932 27.744 84.7332 28.128C84.6052 28.48 84.6212 28.688 84.7812 28.752ZM110.562 23.904C111.01 23.52 111.378 23.456 111.666 23.712C111.954 23.936 111.874 24.304 111.426 24.816C111.298 24.976 110.946 25.312 110.37 25.824C109.794 26.304 109.058 26.96 108.162 27.792C107.298 28.592 106.29 29.536 105.138 30.624C104.018 31.712 102.85 32.896 101.634 34.176C100.194 35.712 99.0105 37.216 98.0825 38.688C97.1545 40.192 96.3865 41.552 95.7785 42.768C95.1705 43.984 94.6905 44.992 94.3385 45.792C93.9545 46.624 93.6185 47.104 93.3305 47.232C93.0425 47.36 92.6745 47.424 92.2265 47.424C91.7785 47.456 91.3625 47.408 90.9785 47.28C90.5945 47.184 90.3225 47.008 90.1625 46.752C90.0025 46.528 90.0825 46.192 90.4025 45.744C90.6265 45.392 91.1225 44.576 91.8905 43.296C92.6265 42.016 93.5065 40.512 94.5305 38.784C95.5545 37.056 96.6585 35.216 97.8425 33.264C99.0585 31.28 100.226 29.424 101.346 27.696C100.706 28.304 100.082 28.848 99.4745 29.328C98.8665 29.808 98.3705 30.048 97.9865 30.048C97.7945 30.048 97.5385 30 97.2185 29.904C96.8985 29.776 96.5785 29.632 96.2585 29.472C95.9385 29.28 95.6505 29.072 95.3945 28.848C95.1065 28.592 94.9305 28.32 94.8665 28.032C94.8345 27.776 94.9625 27.344 95.2505 26.736C95.5065 26.096 95.8585 25.424 96.3065 24.72C96.7225 23.984 97.1705 23.28 97.6505 22.608C98.1625 21.904 98.6265 21.376 99.0425 21.024C99.2345 20.864 99.4905 20.816 99.8105 20.88C100.162 20.944 100.498 21.088 100.818 21.312C101.17 21.504 101.474 21.744 101.73 22.032C102.018 22.32 102.178 22.576 102.21 22.8C102.306 23.024 102.146 23.424 101.73 24C101.314 24.576 100.866 25.152 100.386 25.728C99.9385 26.272 99.5705 26.752 99.2825 27.168C98.9945 27.552 99.0265 27.68 99.3785 27.552C99.6345 27.456 99.9545 27.248 100.338 26.928C100.754 26.608 101.186 26.24 101.634 25.824C102.114 25.376 102.594 24.912 103.074 24.432C103.554 23.952 104.002 23.52 104.418 23.136C104.674 22.912 104.866 22.72 104.994 22.56C105.154 22.368 105.282 22.256 105.378 22.224C105.602 22.192 105.858 22.224 106.146 22.32C106.434 22.416 106.706 22.544 106.962 22.704C107.218 22.864 107.426 23.072 107.586 23.328C107.746 23.552 107.826 23.776 107.826 24C107.826 24.256 107.634 24.624 107.25 25.104C106.866 25.584 106.37 26.192 105.762 26.928C105.186 27.632 104.498 28.48 103.698 29.472C102.93 30.432 102.146 31.536 101.346 32.784C101.442 32.688 101.794 32.304 102.402 31.632C103.042 30.96 103.81 30.176 104.706 29.28C105.634 28.352 106.61 27.408 107.634 26.448C108.69 25.488 109.666 24.64 110.562 23.904Z" fill="#FF3A3A"/>
<rect x="2" y="38" width="35.9763" height="2" fill="#FF3A3A"/>
</svg>
