<svg width="30" height="23" viewBox="0 0 30 23" fill="none" xmlns="http://www.w3.org/2000/svg">
<path d="M3.27637 0.740967H26.9177C28.4237 0.740967 29.6456 1.96282 29.6456 3.46882V19.8359C29.6456 21.3419 28.4237 22.5638 26.9177 22.5638H3.27637C1.77037 22.5638 0.548521 21.3419 0.548521 19.8359V3.46882C0.548521 1.96282 1.77037 0.740967 3.27637 0.740967ZM26.9177 2.55953H3.27637C2.77626 2.55953 2.36709 2.96871 2.36709 3.46882V5.82159C3.61167 6.87295 5.39046 8.32212 10.9257 12.7151C11.8861 13.4766 13.7786 15.3122 15.0971 15.2895C16.4155 15.3122 18.3136 13.4766 19.2684 12.7151C24.8037 8.32212 26.5824 6.87295 27.827 5.82159V3.46882C27.827 2.96871 27.4178 2.55953 26.9177 2.55953ZM3.27637 20.7452H26.9177C27.4178 20.7452 27.827 20.336 27.827 19.8359V8.18572C26.5313 9.24845 24.4854 10.8908 20.3993 14.1358C19.2343 15.0679 17.177 17.1194 15.0971 17.1081C13.0284 17.1251 10.9882 15.0906 9.7948 14.1358C5.7087 10.8908 3.66282 9.24845 2.36709 8.18572V19.8359C2.36709 20.336 2.77626 20.7452 3.27637 20.7452Z" fill="white"/>
</svg>
