<svg width="35" height="40" viewBox="0 0 35 40" fill="none" xmlns="http://www.w3.org/2000/svg">
<path d="M17.2499 19.775C22.6156 19.775 26.9642 15.4263 26.9642 10.0607C26.9642 4.6951 22.6156 0.346436 17.2499 0.346436C11.8843 0.346436 7.53565 4.6951 7.53565 10.0607C7.53565 15.4263 11.8843 19.775 17.2499 19.775ZM17.2499 2.77501C21.2647 2.77501 24.5357 6.04599 24.5357 10.0607C24.5357 14.0755 21.2647 17.3464 17.2499 17.3464C13.2352 17.3464 9.96422 14.0755 9.96422 10.0607C9.96422 6.04599 13.2352 2.77501 17.2499 2.77501ZM24.2245 23.433L21.2115 33.8911L18.6388 26.1728L20.5361 24.2755C21.3026 23.5089 20.7562 22.2036 19.6785 22.2036H14.8214C13.7361 22.2036 13.1973 23.5089 13.9638 24.2755L15.8611 26.1728L13.2883 33.8911L10.2754 23.4406C4.72003 23.5317 0.249939 28.0473 0.249939 33.6179V35.5607C0.249939 37.5719 1.88164 39.2036 3.8928 39.2036H30.6071C32.6182 39.2036 34.2499 37.5719 34.2499 35.5607V33.6179C34.2499 28.0473 29.7799 23.5317 24.2245 23.433ZM3.8928 36.775C3.22494 36.775 2.67851 36.2286 2.67851 35.5607V33.6179C2.67851 30.0357 5.1678 26.9772 8.51467 26.1121L11.5959 36.775H3.8928ZM14.8897 36.775L17.2499 29.6866L19.6102 36.775H14.8897ZM31.8214 35.5607C31.8214 36.2286 31.2749 36.775 30.6071 36.775H22.904L25.9776 26.1121C29.3245 26.9772 31.8138 30.0357 31.8138 33.6179V35.5607H31.8214Z" fill="#FF3A3A"/>
</svg>
