<svg width="22" height="30" viewBox="0 0 22 30" fill="none" xmlns="http://www.w3.org/2000/svg">
<path d="M11.097 6.18134C8.12614 6.18134 5.70917 8.59831 5.70917 11.5692C5.70917 14.5401 8.12614 16.9571 11.097 16.9571C14.068 16.9571 16.4849 14.5401 16.4849 11.5692C16.4849 8.59831 14.068 6.18134 11.097 6.18134ZM11.097 15.1611C9.11644 15.1611 7.50513 13.5498 7.50513 11.5692C7.50513 9.58861 9.11644 7.9773 11.097 7.9773C13.0777 7.9773 14.689 9.58861 14.689 11.5692C14.689 13.5498 13.0777 15.1611 11.097 15.1611ZM11.097 0.793457C5.14574 0.793457 0.321289 5.61791 0.321289 11.5692C0.321289 15.9139 1.83495 17.1272 9.98962 28.9491C10.5247 29.722 11.6693 29.7221 12.2045 28.9491C20.3592 17.1272 21.8728 15.9139 21.8728 11.5692C21.8728 5.61791 17.0484 0.793457 11.097 0.793457ZM11.097 27.3922C3.27929 16.0865 2.11725 15.1889 2.11725 11.5692C2.11725 9.1706 3.05132 6.9156 4.74738 5.21954C6.44344 3.52348 8.69843 2.58942 11.097 2.58942C13.4957 2.58942 15.7507 3.52348 17.4467 5.21954C19.1428 6.9156 20.0768 9.1706 20.0768 11.5692C20.0768 15.1886 18.9155 16.0855 11.097 27.3922Z" fill="white"/>
</svg>
