<svg width="24" height="25" viewBox="0 0 24 25" fill="none" xmlns="http://www.w3.org/2000/svg">
<path d="M22.5506 15.6826L17.8979 13.688C17.4802 13.5104 17.0162 13.4728 16.5754 13.581C16.1346 13.6892 15.7407 13.9372 15.4526 14.288L13.955 16.1199C11.5526 14.8105 9.57798 12.8371 8.26723 10.4354L10.0992 8.93773C10.45 8.64939 10.698 8.25524 10.8061 7.81423C10.9143 7.37323 10.8767 6.90906 10.6992 6.49115L8.70782 1.84163C8.51561 1.38914 8.17005 1.0189 7.73187 0.796003C7.29369 0.573104 6.79096 0.511815 6.31207 0.622914L1.99825 1.61721C1.53538 1.72226 1.12211 1.98187 0.826564 2.35327C0.531013 2.72466 0.37082 3.18567 0.372387 3.66031C0.372387 14.9388 9.51754 24.0226 20.7328 24.018C21.2074 24.0194 21.6683 23.8591 22.0395 23.5635C22.4107 23.2678 22.6702 22.8545 22.775 22.3917L23.7688 18.0765C23.8784 17.5979 23.8164 17.0961 23.5938 16.6586C23.3711 16.2211 23.0019 15.8757 22.5506 15.6826ZM20.6458 21.8238C10.6808 21.778 2.61654 13.7132 2.57074 3.74275L6.72426 2.78555L8.65194 7.28393L5.53348 9.8354C7.6581 14.3695 10.0305 16.7341 14.5559 18.8578L17.1064 15.7384L21.6035 17.667L20.6458 21.8238Z" fill="white"/>
</svg>
