<svg width="18" height="18" viewBox="0 0 18 18" fill="none" xmlns="http://www.w3.org/2000/svg">
<path d="M15.2054 3.97228C13.7576 4.00549 12.5921 5.2175 12.612 6.66527C12.6286 7.93373 13.5351 8.98636 14.7372 9.22876V12.7353C14.7372 14.9236 12.8312 16.7034 10.4868 16.7034C8.14251 16.7034 6.2365 14.9236 6.2365 12.7353V12.4398C8.62399 12.1741 10.4868 10.1452 10.4868 7.68801V1.62463C10.4868 1.442 10.364 1.28261 10.1847 1.23945L8.34506 0.781205C8.13255 0.728076 7.91671 0.857579 7.86026 1.0701L7.79717 1.3291C7.74404 1.54162 7.87354 1.75746 8.08606 1.81391L9.42425 2.14596V7.65148C9.42425 9.7036 7.78056 11.4004 5.72845 11.4104C3.66637 11.4237 1.98615 9.75009 1.98615 7.69133V2.14596L3.32103 1.81058C3.53354 1.75746 3.66305 1.54162 3.60992 1.32578L3.54683 1.0701C3.4937 0.857579 3.27786 0.728076 3.06202 0.781205L1.22574 1.23945C1.04643 1.28261 0.923569 1.442 0.923569 1.62463V7.68801C0.923569 10.1452 2.78641 12.1741 5.17391 12.4398V12.7353C5.17391 15.5113 7.55809 17.7693 10.4868 17.7693C13.4156 17.7693 15.7998 15.5113 15.7998 12.7386V9.23208C17.0118 8.98636 17.9249 7.91381 17.9249 6.62874C17.9249 5.1378 16.6996 3.93576 15.2054 3.97228ZM15.2685 8.22262C14.3885 8.22262 13.6746 7.5087 13.6746 6.62874C13.6746 5.74879 14.3885 5.03487 15.2685 5.03487C16.1484 5.03487 16.8623 5.74879 16.8623 6.62874C16.8623 7.5087 16.1484 8.22262 15.2685 8.22262ZM16.0488 6.62874C16.0488 7.06042 15.7001 7.40908 15.2685 7.40908C14.8368 7.40908 14.4881 7.06042 14.4881 6.62874C14.4881 6.19707 14.8368 5.84841 15.2685 5.84841C15.7001 5.84841 16.0488 6.19707 16.0488 6.62874Z" fill="black"/>
</svg>
