<svg width="18" height="16" viewBox="0 0 18 16" fill="none" xmlns="http://www.w3.org/2000/svg">
<path d="M13.6749 7.5846C13.0882 7.5846 12.6124 8.0604 12.6124 8.6471C12.6124 9.2338 13.0882 9.7096 13.6749 9.7096C14.2616 9.7096 14.7374 9.2338 14.7374 8.6471C14.7374 8.0604 14.2616 7.5846 13.6749 7.5846ZM16.3312 2.27209H15.7999V1.74084C15.7999 0.86063 15.0864 0.147095 14.2062 0.147095H4.11243C2.352 0.147095 0.924927 1.57417 0.924927 3.3346V11.8346C0.924927 13.595 2.352 15.0221 4.11243 15.0221H15.7999C16.9737 15.0221 17.9249 14.0708 17.9249 12.8971V3.86585C17.9249 2.98563 17.2114 2.27209 16.3312 2.27209ZM16.8624 12.8971C16.8624 13.4828 16.3856 13.9596 15.7999 13.9596H4.11243C2.94069 13.9596 1.98743 13.0063 1.98743 11.8346V3.3346C1.98743 2.16286 2.94069 1.20959 4.11243 1.20959H14.2062C14.499 1.20959 14.7374 1.44799 14.7374 1.74084V2.27209H4.64368C4.35016 2.27209 4.11243 2.50983 4.11243 2.80334C4.11243 3.09686 4.35016 3.3346 4.64368 3.3346H16.3312C16.624 3.3346 16.8624 3.57299 16.8624 3.86585V12.8971Z" fill="black"/>
</svg>
